<?xml version="1.0" encoding="utf-8"?>
<!-- Generator: Adobe Illustrator 16.0.0, SVG Export Plug-In . SVG Version: 6.00 Build 0)  -->
<!DOCTYPE svg PUBLIC "-//W3C//DTD SVG 1.1//EN" "http://www.w3.org/Graphics/SVG/1.1/DTD/svg11.dtd">
<svg version="1.1" id="Layer_1" xmlns="http://www.w3.org/2000/svg" xmlns:xlink="http://www.w3.org/1999/xlink" x="0px" y="0px"
	 width="1024px" height="1024px" viewBox="0 0 1024 1024" enable-background="new 0 0 1024 1024" xml:space="preserve">
<g>
	<g>
		<linearGradient id="SVGID_1_" gradientUnits="userSpaceOnUse" x1="496.0884" y1="104.9951" x2="558.9052" y2="729.9456">
			<stop  offset="0.3558" style="stop-color:#F79421"/>
			<stop  offset="0.6319" style="stop-color:#F15C27"/>
			<stop  offset="1" style="stop-color:#EC2227"/>
		</linearGradient>
		<path fill="url(#SVGID_1_)" d="M483.869,77.73c0,0-129.36,155.051-121.345,285.632
			c11.277,183.622,244.833,315.698,202.951,425.221c0,0,56.38-48.315,48.323-138.519c-8.048-90.197-186.846-117.58-106.309-330.194
			c0,0,27.325,37.309,65.502,77.853c58.756,62.387,129.929,123.493,90.735,244.292c0,0,65.994-88.589,11.246-222.818
			C620.241,284.976,461.314,215.745,483.869,77.73z"/>
		<g opacity="0.4">
			<linearGradient id="SVGID_2_" gradientUnits="userSpaceOnUse" x1="362.167" y1="433.1562" x2="609.8477" y2="433.1562">
				<stop  offset="0" style="stop-color:#F6EB16"/>
				<stop  offset="0.0904" style="stop-color:#F6E618"/>
				<stop  offset="0.196" style="stop-color:#F6DD1A"/>
				<stop  offset="0.3092" style="stop-color:#F6CD1E"/>
				<stop  offset="0.4277" style="stop-color:#F6B720"/>
				<stop  offset="0.5493" style="stop-color:#F79B21"/>
				<stop  offset="0.5767" style="stop-color:#F79421"/>
				<stop  offset="1" style="stop-color:#F15C27"/>
			</linearGradient>
			<path fill="url(#SVGID_2_)" d="M443.061,408.46c-4.47-72.829,33.792-153.264,68.502-210.168
				c-22.433-35.82-35.259-74.333-27.703-120.562c0,0-129.348,155.051-121.336,285.632
				c11.277,183.622,244.833,315.698,202.951,425.221c0,0,32.078-27.514,44.372-79.763
				C551.346,625.131,450.384,527.657,443.061,408.46z"/>
			<linearGradient id="SVGID_3_" gradientUnits="userSpaceOnUse" x1="584.2285" y1="524.1387" x2="696.6494" y2="524.1387">
				<stop  offset="0" style="stop-color:#F6EB16"/>
				<stop  offset="0.0904" style="stop-color:#F6E618"/>
				<stop  offset="0.196" style="stop-color:#F6DD1A"/>
				<stop  offset="0.3092" style="stop-color:#F6CD1E"/>
				<stop  offset="0.4277" style="stop-color:#F6B720"/>
				<stop  offset="0.5493" style="stop-color:#F79B21"/>
				<stop  offset="0.5767" style="stop-color:#F79421"/>
				<stop  offset="1" style="stop-color:#F15C27"/>
			</linearGradient>
			<path fill="url(#SVGID_3_)" d="M584.229,409.534c0,0,128.355,96.108,80.786,228.178c0.319,0.345,0.624,0.688,0.918,1.032
				c8.795-13.629,40.604-69.943,27.661-153.39C663.728,426.18,584.229,409.534,584.229,409.534z"/>
		</g>
		<linearGradient id="SVGID_4_" gradientUnits="userSpaceOnUse" x1="413.8296" y1="406.8628" x2="449.2652" y2="709.6746">
			<stop  offset="0.3558" style="stop-color:#F79421"/>
			<stop  offset="0.6319" style="stop-color:#F15C27"/>
			<stop  offset="1" style="stop-color:#EC2227"/>
		</linearGradient>
		<path fill="url(#SVGID_4_)" d="M330.311,395.576c6.696,19.834,13.445,38.771,21.556,56.793
			c8.002,18.031,17.022,35.177,27.107,51.569c20.022,32.89,44.233,62.723,69.887,92.942c6.347,7.613,12.838,15.22,19.395,22.883
			c6.409,7.794,13.015,15.539,19.425,23.619c6.343,8.106,12.818,16.277,18.833,24.966c3.033,4.312,6.057,8.679,8.951,13.178
			c2.86,4.517,5.655,9.131,8.343,13.845c10.59,18.809,19.424,39.963,21.908,62.402c2.581,22.375-1.911,44.955-12.449,63.027
			c0.113-10.476-0.6-20.572-2.321-30.146c-1.761-9.572-4.515-18.604-8.269-27.111c-7.393-17.031-18.129-32.169-30.292-46.807
			c-24.383-29.211-53.74-56.872-80.397-88.655c-26.751-31.538-51.376-67.329-67.014-107.474
			C329.372,480.622,323.028,436.806,330.311,395.576z"/>
		<linearGradient id="SVGID_5_" gradientUnits="userSpaceOnUse" x1="352.8618" y1="358.7935" x2="467.2221" y2="734.0879">
			<stop  offset="0" style="stop-color:#F6EB16"/>
			<stop  offset="0.0904" style="stop-color:#F6E618"/>
			<stop  offset="0.196" style="stop-color:#F6DD1A"/>
			<stop  offset="0.3092" style="stop-color:#F6CD1E"/>
			<stop  offset="0.4277" style="stop-color:#F6B720"/>
			<stop  offset="0.5493" style="stop-color:#F79B21"/>
			<stop  offset="0.5767" style="stop-color:#F79421"/>
			<stop  offset="1" style="stop-color:#F15C27"/>
		</linearGradient>
		<path opacity="0.3" fill="url(#SVGID_5_)" d="M538.757,785.402c-1.409-10.975-3.967-21.399-7.688-31.284
			c-7.327-19.792-18.563-37.619-31.439-55.002c-25.841-34.66-57.425-67.896-85.688-105.613
			c-28.375-37.463-54.077-79.614-69.309-126.147c-7.589-23.149-12.499-47.241-14.167-71.325c-0.049-0.152-0.098-0.303-0.155-0.455
			c-7.282,41.229-0.938,85.045,14.662,125.032c15.638,40.145,40.263,75.936,67.014,107.474
			c26.657,31.783,56.015,59.444,80.397,88.655c12.163,14.638,22.9,29.775,30.292,46.807c3.754,8.508,6.508,17.539,8.269,27.111
			c1.722,9.573,2.435,19.67,2.321,30.146c2.589-4.442,4.802-9.163,6.654-14.089C539.945,799.434,539.609,792.303,538.757,785.402z"
			/>
		<linearGradient id="SVGID_6_" gradientUnits="userSpaceOnUse" x1="565.957" y1="405.6753" x2="603.5396" y2="604.3207">
			<stop  offset="0.3558" style="stop-color:#F79421"/>
			<stop  offset="0.6319" style="stop-color:#F15C27"/>
			<stop  offset="1" style="stop-color:#EC2227"/>
		</linearGradient>
		<path fill="url(#SVGID_6_)" d="M526.823,409.534c0,0-5.376,59.06,26.842,102.011c32.218,42.954,86.975,81.613,90.205,120.258
			c0,0,12.874-75.156-30.071-123.479C570.845,460.005,526.823,437.453,526.823,409.534z"/>
		<linearGradient id="SVGID_7_" gradientUnits="userSpaceOnUse" x1="526.4805" y1="522.3857" x2="645.668" y2="522.3857">
			<stop  offset="0" style="stop-color:#F6EB16"/>
			<stop  offset="0.0904" style="stop-color:#F6E618"/>
			<stop  offset="0.196" style="stop-color:#F6DD1A"/>
			<stop  offset="0.3092" style="stop-color:#F6CD1E"/>
			<stop  offset="0.4277" style="stop-color:#F6B720"/>
			<stop  offset="0.5493" style="stop-color:#F79B21"/>
			<stop  offset="0.5767" style="stop-color:#F79421"/>
			<stop  offset="1" style="stop-color:#F15C27"/>
		</linearGradient>
		<path opacity="0.5" fill="url(#SVGID_7_)" d="M555.444,472.077c-13.941-18.588-22.982-39.262-28.834-59.108
			c-0.557,13.162-0.557,61.768,27.055,98.577c32.218,42.954,86.975,81.613,90.205,120.258c0,0,5.114-29.972-1.909-64.23
			C614.783,536.886,580.425,505.381,555.444,472.077z"/>
		<linearGradient id="SVGID_8_" gradientUnits="userSpaceOnUse" x1="594.1475" y1="50.8857" x2="594.1475" y2="271.5524">
			<stop  offset="0.3558" style="stop-color:#F79421"/>
			<stop  offset="0.6319" style="stop-color:#F15C27"/>
			<stop  offset="1" style="stop-color:#EC2227"/>
		</linearGradient>
		<path fill="url(#SVGID_8_)" d="M509.104,41.222c0,0-30.128,80.914,23.965,153.03c54.076,72.12,146.043,137.023,151.444,201.935
			c0,0,21.637-126.209-50.487-207.344C561.903,107.708,509.104,88.094,509.104,41.222z"/>
		<linearGradient id="SVGID_9_" gradientUnits="userSpaceOnUse" x1="500.728" y1="218.7842" x2="687.5537" y2="218.7842">
			<stop  offset="0" style="stop-color:#F6EB16"/>
			<stop  offset="0.0904" style="stop-color:#F6E618"/>
			<stop  offset="0.196" style="stop-color:#F6DD1A"/>
			<stop  offset="0.3092" style="stop-color:#F6CD1E"/>
			<stop  offset="0.4277" style="stop-color:#F6B720"/>
			<stop  offset="0.5493" style="stop-color:#F79B21"/>
			<stop  offset="0.5767" style="stop-color:#F79421"/>
			<stop  offset="1" style="stop-color:#F15C27"/>
		</linearGradient>
		<path opacity="0.2" fill="url(#SVGID_9_)" d="M555.821,166.624c-29.145-38.861-41.636-79.439-45.815-115.292
			c-0.492-2.812-0.787-5.717-0.853-8.729c-0.033-0.402-0.082-0.815-0.115-1.222c-1.212,3.365-28.898,82.303,24.031,152.871
			c54.076,72.12,146.043,137.023,151.444,201.935c0,0,6.639-38.75,0.295-87.106C642.05,263.179,592.899,216.053,555.821,166.624z"/>
	</g>
	<text transform="matrix(1 0 0 1 393.126 957.625)" fill="#FFFFFF" font-family="'Slabo13px-Regular'" font-size="104.732">Lit it</text>
</g>
</svg>
