<?xml version="1.0" encoding="utf-8"?>
<!-- Generator: Adobe Illustrator 16.0.0, SVG Export Plug-In . SVG Version: 6.00 Build 0)  -->
<!DOCTYPE svg PUBLIC "-//W3C//DTD SVG 1.1//EN" "http://www.w3.org/Graphics/SVG/1.1/DTD/svg11.dtd">
<svg version="1.1" xmlns="http://www.w3.org/2000/svg" xmlns:xlink="http://www.w3.org/1999/xlink" x="0px" y="0px" width="630px"
	 height="776px" viewBox="0 0 630 776" enable-background="new 0 0 630 776" xml:space="preserve">
<g id="Background" display="none">
</g>
<g id="Object">
	<g>
		<linearGradient id="SVGID_1_" gradientUnits="userSpaceOnUse" x1="285.4893" y1="84.8706" x2="332.8723" y2="556.2744">
			<stop  offset="0.3558" style="stop-color:#F7931E"/>
			<stop  offset="0.6319" style="stop-color:#F15A24"/>
			<stop  offset="1" style="stop-color:#ED1C24"/>
		</linearGradient>
		<path fill="url(#SVGID_1_)" d="M276.268,64.304c0,0-97.574,116.957-91.526,215.452c8.504,138.505,184.675,238.132,153.085,320.749
			c0,0,42.524-36.447,36.449-104.485c-6.074-68.038-140.937-88.692-80.188-249.067c0,0,20.612,28.142,49.406,58.723
			c44.317,47.061,98.009,93.147,68.445,184.269c0,0,49.78-66.821,8.485-168.069C379.136,220.628,259.257,168.41,276.268,64.304z"/>
		<g opacity="0.4">
			<linearGradient id="SVGID_2_" gradientUnits="userSpaceOnUse" x1="184.4717" y1="332.4043" x2="371.2998" y2="332.4043">
				<stop  offset="0" style="stop-color:#FFFF00"/>
				<stop  offset="0.0993" style="stop-color:#FFFA01"/>
				<stop  offset="0.2153" style="stop-color:#FEEC05"/>
				<stop  offset="0.3397" style="stop-color:#FCD50C"/>
				<stop  offset="0.469" style="stop-color:#F9B415"/>
				<stop  offset="0.5767" style="stop-color:#F7931E"/>
				<stop  offset="1" style="stop-color:#F15A24"/>
			</linearGradient>
			<path fill="url(#SVGID_2_)" d="M245.49,313.775c-3.373-54.936,25.488-115.606,51.675-158.531
				c-16.923-27.021-26.596-56.068-20.898-90.94c0,0-97.572,116.957-91.525,215.452c8.504,138.505,184.675,238.132,153.085,320.749
				c0,0,24.194-20.76,33.473-60.169C327.167,477.209,251.011,403.687,245.49,313.775z"/>
			<linearGradient id="SVGID_3_" gradientUnits="userSpaceOnUse" x1="351.9756" y1="401.0342" x2="436.7695" y2="401.0342">
				<stop  offset="0" style="stop-color:#FFFF00"/>
				<stop  offset="0.0993" style="stop-color:#FFFA01"/>
				<stop  offset="0.2153" style="stop-color:#FEEC05"/>
				<stop  offset="0.3397" style="stop-color:#FCD50C"/>
				<stop  offset="0.469" style="stop-color:#F9B415"/>
				<stop  offset="0.5767" style="stop-color:#F7931E"/>
				<stop  offset="1" style="stop-color:#F15A24"/>
			</linearGradient>
			<path fill="url(#SVGID_3_)" d="M351.976,314.584c0,0,96.816,72.495,60.938,172.118c0.232,0.262,0.466,0.521,0.692,0.781
				c6.634-10.278,30.62-52.765,20.859-115.705C411.939,327.141,351.976,314.584,351.976,314.584z"/>
		</g>
		<linearGradient id="SVGID_4_" gradientUnits="userSpaceOnUse" x1="223.4385" y1="312.5688" x2="250.1678" y2="540.9818">
			<stop  offset="0.3558" style="stop-color:#F7931E"/>
			<stop  offset="0.6319" style="stop-color:#F15A24"/>
			<stop  offset="1" style="stop-color:#ED1C24"/>
		</linearGradient>
		<path fill="url(#SVGID_4_)" d="M160.442,304.056c5.051,14.96,10.14,29.245,16.255,42.84c6.039,13.603,12.844,26.536,20.45,38.903
			c15.102,24.806,33.364,47.309,52.716,70.104c4.788,5.744,9.686,11.476,14.631,17.258c4.833,5.884,9.82,11.726,14.646,17.818
			c4.791,6.119,9.673,12.275,14.209,18.826c2.287,3.257,4.57,6.55,6.755,9.943c2.157,3.413,4.263,6.89,6.291,10.438
			c7.992,14.19,14.655,30.148,16.523,47.076c1.951,16.874-1.441,33.914-9.391,47.542c0.09-7.903-0.447-15.52-1.747-22.736
			c-1.334-7.221-3.412-14.04-6.237-20.453c-5.577-12.847-13.678-24.264-22.844-35.304c-18.397-22.033-40.543-42.903-60.652-66.875
			c-20.178-23.788-38.754-50.789-50.547-81.071C159.735,368.206,154.949,335.156,160.442,304.056z"/>
		<linearGradient id="SVGID_5_" gradientUnits="userSpaceOnUse" x1="177.4512" y1="276.3115" x2="263.7135" y2="559.3975">
			<stop  offset="0" style="stop-color:#FFFF00"/>
			<stop  offset="0.0993" style="stop-color:#FFFA01"/>
			<stop  offset="0.2153" style="stop-color:#FEEC05"/>
			<stop  offset="0.3397" style="stop-color:#FCD50C"/>
			<stop  offset="0.469" style="stop-color:#F9B415"/>
			<stop  offset="0.5767" style="stop-color:#F7931E"/>
			<stop  offset="1" style="stop-color:#F15A24"/>
		</linearGradient>
		<path opacity="0.3" fill="url(#SVGID_5_)" d="M317.671,598.103c-1.063-8.275-2.994-16.142-5.801-23.598
			c-5.522-14.924-13.999-28.38-23.709-41.483c-19.497-26.151-43.319-51.215-64.637-79.671
			c-21.405-28.254-40.792-60.054-52.279-95.151c-5.727-17.461-9.432-35.632-10.686-53.802c-0.04-0.114-0.078-0.227-0.117-0.341
			c-5.493,31.101-0.708,64.15,11.058,94.311c11.793,30.282,30.369,57.283,50.547,81.071c20.109,23.972,42.255,44.842,60.652,66.875
			c9.167,11.04,17.267,22.457,22.844,35.304c2.825,6.413,4.903,13.232,6.237,20.453c1.3,7.217,1.837,14.833,1.747,22.736
			c1.956-3.352,3.626-6.915,5.021-10.624C318.567,608.686,318.315,603.306,317.671,598.103z"/>
		<linearGradient id="SVGID_6_" gradientUnits="userSpaceOnUse" x1="338.1875" y1="311.6729" x2="366.5372" y2="461.5172">
			<stop  offset="0.3558" style="stop-color:#F7931E"/>
			<stop  offset="0.6319" style="stop-color:#F15A24"/>
			<stop  offset="1" style="stop-color:#ED1C24"/>
		</linearGradient>
		<path fill="url(#SVGID_6_)" d="M308.669,314.584c0,0-4.053,44.55,20.25,76.949c24.299,32.398,65.607,61.558,68.037,90.716
			c0,0,9.716-56.697-22.68-93.146C341.875,352.654,308.669,335.643,308.669,314.584z"/>
		<linearGradient id="SVGID_7_" gradientUnits="userSpaceOnUse" x1="308.4121" y1="399.7129" x2="398.3145" y2="399.7129">
			<stop  offset="0" style="stop-color:#FFFF00"/>
			<stop  offset="0.0993" style="stop-color:#FFFA01"/>
			<stop  offset="0.2153" style="stop-color:#FEEC05"/>
			<stop  offset="0.3397" style="stop-color:#FCD50C"/>
			<stop  offset="0.469" style="stop-color:#F9B415"/>
			<stop  offset="0.5767" style="stop-color:#F7931E"/>
			<stop  offset="1" style="stop-color:#F15A24"/>
		</linearGradient>
		<path opacity="0.5" fill="url(#SVGID_7_)" d="M330.263,361.76c-10.518-14.02-17.333-29.614-21.752-44.582
			c-0.422,9.926-0.418,46.59,20.408,74.355c24.299,32.398,65.607,61.558,68.037,90.716c0,0,3.863-22.613-1.438-48.456
			C375.021,410.648,349.099,386.879,330.263,361.76z"/>
		<linearGradient id="SVGID_8_" gradientUnits="userSpaceOnUse" x1="359.4541" y1="44.0542" x2="359.4541" y2="210.5035">
			<stop  offset="0.3558" style="stop-color:#F7931E"/>
			<stop  offset="0.6319" style="stop-color:#F15A24"/>
			<stop  offset="1" style="stop-color:#ED1C24"/>
		</linearGradient>
		<path fill="url(#SVGID_8_)" d="M295.303,36.765c0,0-22.723,61.032,18.078,115.432c40.796,54.399,110.158,103.358,114.239,152.319
			c0,0,16.316-95.198-38.086-156.4C335.137,86.916,295.303,72.121,295.303,36.765z"/>
		<linearGradient id="SVGID_9_" gradientUnits="userSpaceOnUse" x1="288.9873" y1="170.7002" x2="429.9092" y2="170.7002">
			<stop  offset="0" style="stop-color:#FFFF00"/>
			<stop  offset="0.0993" style="stop-color:#FFFA01"/>
			<stop  offset="0.2153" style="stop-color:#FEEC05"/>
			<stop  offset="0.3397" style="stop-color:#FCD50C"/>
			<stop  offset="0.469" style="stop-color:#F9B415"/>
			<stop  offset="0.5767" style="stop-color:#F7931E"/>
			<stop  offset="1" style="stop-color:#F15A24"/>
		</linearGradient>
		<path opacity="0.2" fill="url(#SVGID_9_)" d="M330.542,131.354c-21.983-29.313-31.405-59.921-34.552-86.961
			c-0.379-2.124-0.6-4.313-0.649-6.587c-0.026-0.305-0.06-0.616-0.084-0.92c-0.915,2.538-21.799,62.082,18.124,115.311
			c40.796,54.399,110.158,103.358,114.239,152.319c0,0,5.002-29.229,0.219-65.702C395.59,204.19,358.51,168.641,330.542,131.354z"/>
	</g>
</g>
<g id="Layer_3">
	<text transform="matrix(1 0 0 1 209.3784 728.0195)" fill="#FFFFFF" font-family="'Slabo13px-Regular'" font-size="79">Lit it</text>
</g>
</svg>
